[Header]
FileType HTR
DataType HTRS
FileVersion 1
NumSegments 22
NumFrames 8
DataFrameRate 24
EulerRotationOrder ZYX
CalibrationUnits mm
RotationUnits Degrees
GlobalAxisofGravity Y
BoneLengthAxis Y
ScaleFactor 1.0
[SegmentNames&Hierarchy]
reference	GLOBAL
Hips	reference
Spine	Hips
Spine1	Spine
Neck	Spine1
Head	Neck
LeftShoulder	Spine1
LeftArm	LeftShoulder
LeftForeArm	LeftArm
LeftHand	LeftForeArm
RightShoulder	Spine1
RightArm	RightShoulder
RightForeArm	RightArm
RightHand	RightForeArm
LeftUpLeg	Hips
LeftLeg	LeftUpLeg
LeftFoot	LeftLeg
LeftToeBase	LeftFoot
RightUpLeg	Hips
RightLeg	RightUpLeg
RightFoot	RightLeg
RightToeBase	RightFoot
[BasePosition]
reference	0	0	0	0	0	0	1
Hips	0	0	0	0	0	0	1
Spine	0	0	0	0	-0	90	1
Spine1	0	0	0	0	0	0	1
Neck	0	0	0	-7.352430803	-7.352430803	90	1
Head	0	0	0	0	-0	90	1
LeftShoulder	0	0	0	0	0	0	1
LeftArm	0	0	0	0	0	0	1
LeftForeArm	0	0	0	0	0	0	1
LeftHand	0	0	0	0	0	0	1
RightShoulder	0	0	0	0	-0	180	1
RightArm	0	0	0	0	-0	180	1
RightForeArm	0	0	0	0	-0	180	1
RightHand	0	0	0	0	-0	180	1
LeftUpLeg	0	0	0	0	-0	-90	1
LeftLeg	0	0	0	0	-0	-90	1
LeftFoot	0	0	0	66.57150701	-66.57150701	-90	1
LeftToeBase	0	0	0	0	-90	0	1
RightUpLeg	0	0	0	0	-0	-90	1
RightLeg	0	0	0	0	-0	-90	1
RightFoot	0	0	0	66.57150701	-66.57150701	-90	1
RightToeBase	0	0	0	0	-90	0	1
[reference]
65	0	0	0	0	-0	0	1.0
66	0	0	0	0	-0	0	1.0
67	0	0	0	0	-0	0	1.0
68	0	0	0	0	-0	0	1.0
69	0	0	0	0	-0	0	1.0
70	0	0	0	0	-0	0	1.0
71	0	0	0	0	-0	0	1.0
72	0	0	0	0	-0	0	1.0
[Hips]
65	11.56005764	8.524390221	-4.408207417	171.8602905	-111.3783035	-173.3833771	1.0
66	11.6672411	8.524390221	-4.472966194	172.1199646	-109.7137909	-173.8591919	1.0
67	11.76370716	8.524390221	-4.55050993	169.3578949	-106.3789444	-169.9590454	1.0
68	11.8371973	8.524390221	-4.59453392	168.7309875	-104.3248825	-169.5361176	1.0
69	11.88467121	8.524390221	-4.642802238	169.9870911	-103.7020874	-171.4378967	1.0
70	11.94687843	8.524390221	-4.690169811	170.1462097	-102.4401169	-171.7734375	1.0
71	12.0300312	8.524390221	-4.733686924	171.6604004	-101.852951	-173.4059143	1.0
72	12.12028503	8.524390221	-4.773304939	174.108078	-102.3231201	-176.0897827	1.0
[Spine]
65	0	0.7478299737	0	1.33705771	-4.493253708	-89.83971405	1.0
66	0	0.7478299737	0	1.113509893	-4.704576015	-90.08120728	1.0
67	0	0.7478299737	0	-0.7887554169	-4.275004387	-91.61663818	1.0
68	0	0.7478299737	0	-1.573237777	-4.497274399	-91.67729187	1.0
69	0	0.7478299737	0	-2.249774218	-5.309527874	-90.61426544	1.0
70	0	0.7478299737	0	-2.013825178	-5.383859634	-90.90769958	1.0
71	0	0.7478299737	0	-2.718048334	-5.510733604	-90.62627411	1.0
72	0	0.7478299737	0	-3.233514547	-5.690997124	-90.10453796	1.0
[Spine1]
65	0	2.049309969	0	7.192831993	-1.448795199	-0.6876398921	1.0
66	0	2.049309969	0	6.561964035	-1.518262506	-0.4648968875	1.0
67	0	2.049309969	0	5.837635994	-1.185145736	0.373639524	1.0
68	0	2.049309969	0	8.398633957	-1.498551369	-0.08442796767	1.0
69	0	2.049309969	0	8.704545021	-1.59865725	-2.205435276	1.0
70	0	2.049309969	0	7.323092937	-1.661429167	-2.285269737	1.0
71	0	2.049309969	0	7.613605499	-1.661941409	-2.629632235	1.0
72	0	2.049309969	0	7.850527763	-1.711634398	-2.954926014	1.0
[Neck]
65	0	2.231709957	0	-11.18219662	13.62643147	-87.70935059	1.0
66	0	2.231709957	0	-9.745079041	14.15116119	-87.50693512	1.0
67	0	2.231709957	0	-9.547743797	19.93974495	-88.65753174	1.0
68	0	2.231709957	0	-9.868097305	21.19679832	-88.78695679	1.0
69	0	2.231709957	0	-10.17849159	22.37882805	-88.64971161	1.0
70	0	2.231709957	0	-10.3737402	22.91999626	-87.84169006	1.0
71	0	2.231709957	0	-10.50444031	23.13591576	-87.07945251	1.0
72	0	2.231709957	0	-10.50730705	23.06039619	-86.33069611	1.0
[Head]
65	0	1.413589954	0.1823999882	-7.43926239	6.80517292	-96.6601181	1.0
66	0	1.413589954	0.1823999882	-8.862928391	5.101177216	-95.39328003	1.0
67	0	1.413589954	0.1823999882	-9.550490379	0.4398945272	-92.09434509	1.0
68	0	1.413589954	0.1823999882	-8.853107452	0.2454421818	-91.64681244	1.0
69	0	1.413589954	0.1823999882	-6.702399254	-0.1773493588	-88.54018402	1.0
70	0	1.413589954	0.1823999882	-2.240649223	-0.2521516085	-88.28869629	1.0
71	0	1.413589954	0.1823999882	0.6928766966	-0.2197420448	-89.4050827	1.0
72	0	1.413589954	0.1823999882	3.190425158	0.1009742916	-91.00537109	1.0
[LeftShoulder]
65	0.3649300039	1.825889945	-0.04271000251	-14.3753233	-8.762444496	4.018120766	1.0
66	0.3649300039	1.825889945	-0.04271000251	-14.86975861	-9.020420074	4.799177647	1.0
67	0.3649300039	1.825889945	-0.04271000251	-14.60043907	-9.232683182	5.065497875	1.0
68	0.3649300039	1.825889945	-0.04271000251	-14.92048454	-8.673388481	5.142802238	1.0
69	0.3649300039	1.825889945	-0.04271000251	-13.91550159	-9.321829796	6.184679508	1.0
70	0.3649300039	1.825889945	-0.04271000251	-13.02752781	-8.781475067	6.2318573	1.0
71	0.3649300039	1.825889945	-0.04271000251	-12.63776779	-8.496995926	6.227273941	1.0
72	0.3649300039	1.825889945	-0.04271000251	-12.52176666	-8.487945557	6.320479393	1.0
[LeftArm]
65	1.24003005	0	0	60.79911804	-5.705480576	-76.45413971	1.0
66	1.24003005	0	0	61.22665787	-7.932478428	-76.27111053	1.0
67	1.24003005	0	0	62.09405899	-9.654473305	-75.32474518	1.0
68	1.24003005	0	0	62.04056168	-10.24216652	-74.35762024	1.0
69	1.24003005	0	0	59.75828171	-10.63472939	-73.76164246	1.0
70	1.24003005	0	0	59.43383789	-9.792918205	-74.75896454	1.0
71	1.24003005	0	0	60.02384186	-8.713109016	-75.66997528	1.0
72	1.24003005	0	0	61.23631668	-7.435566425	-76.8744278	1.0
[LeftForeArm]
65	2.847419977	0	0	-17.06985664	-67.22438049	25.6022377	1.0
66	2.847419977	0	0	-34.17980957	-76.66842651	42.04118347	1.0
67	2.847419977	0	0	-82.91699982	-80.77047729	90.46463013	1.0
68	2.847419977	0	0	-121.123642	-76.9278183	129.0828705	1.0
69	2.847419977	0	0	-142.7536316	-75.21729279	148.7916718	1.0
70	2.847419977	0	0	-148.1389923	-74.8359375	153.5160065	1.0
71	2.847419977	0	0	-144.193634	-75.26431274	149.7429199	1.0
72	2.847419977	0	0	-137.0061188	-76.25279999	142.8682098	1.0
[LeftHand]
65	2.258270025	0	0	-0.9019499421	-14.97040081	7.359931469	1.0
66	2.258270025	0	0	-0.8312928081	-15.46876621	3.350863218	1.0
67	2.258270025	0	0	-1.487086773	-15.24067783	-1.513239503	1.0
68	2.258270025	0	0	-2.445111752	-14.3785553	-4.434679031	1.0
69	2.258270025	0	0	-1.881160498	-14.06801128	-5.926782608	1.0
70	2.258270025	0	0	-1.528802395	-13.88230991	-6.626751423	1.0
71	2.258270025	0	0	-1.962480545	-14.00132084	-7.15887785	1.0
72	2.258270025	0	0	-2.553105831	-13.45153809	-6.698809147	1.0
[RightShoulder]
65	-0.3646599948	1.825889945	-0.04271000251	-7.088675022	9.448645592	177.4858398	1.0
66	-0.3646599948	1.825889945	-0.04271000251	-5.360690117	8.297283173	177.1421509	1.0
67	-0.3646599948	1.825889945	-0.04271000251	-2.401777267	6.320188522	177.0170441	1.0
68	-0.3646599948	1.825889945	-0.04271000251	-12.66893959	9.725465775	174.7261353	1.0
69	-0.3646599948	1.825889945	-0.04271000251	2.149171829	2.018695593	177.3221588	1.0
70	-0.3646599948	1.825889945	-0.04271000251	1.098053455	1.951608419	177.6167755	1.0
71	-0.3646599948	1.825889945	-0.04271000251	0.9634149075	1.538927913	178.3105316	1.0
72	-0.3646599948	1.825889945	-0.04271000251	0.7614358664	1.084822297	179.2548523	1.0
[RightArm]
65	-1.24003005	0	0	-14.07736206	-5.948326588	-113.4573822	1.0
66	-1.24003005	0	0	-8.863702774	-9.557087898	-124.8760071	1.0
67	-1.24003005	0	0	16.43247223	-35.1139946	-179.1789093	1.0
68	-1.24003005	0	0	18.7494545	-36.54138565	-179.9039154	1.0
69	-1.24003005	0	0	19.07872963	-36.57690048	-180.4030304	1.0
70	-1.24003005	0	0	19.07872963	-36.57690048	-180.4030304	1.0
71	-1.24003005	0	0	19.07872963	-36.57690048	-180.4030304	1.0
72	-1.24003005	0	0	19.07872963	-36.57690048	-180.4030304	1.0
[RightForeArm]
65	-2.847419977	0	0	25.05044365	-0.4145996273	208.4734497	1.0
66	-2.847419977	0	0	25.23031998	-1.649297476	199.1406097	1.0
67	-2.847419977	0	0	25.23031998	-1.649297476	199.1406097	1.0
68	-2.847419977	0	0	25.23031998	-1.649297476	199.1406097	1.0
69	-2.847419977	0	0	25.23031998	-1.649297476	199.1406097	1.0
70	-2.847419977	0	0	25.23031998	-1.649297476	199.1406097	1.0
71	-2.847419977	0	0	25.23031998	-1.649297476	199.1406097	1.0
72	-2.847419977	0	0	25.23031998	-1.649297476	199.1406097	1.0
[RightHand]
65	-2.258270025	0	0	20.16517448	-12.57682991	230.7626953	1.0
66	-2.258270025	0	0	-4.310646534	19.63201523	160.9458923	1.0
67	-2.258270025	0	0	-4.310646534	19.63201523	160.9458923	1.0
68	-2.258270025	0	0	-4.310646534	19.63201523	160.9458923	1.0
69	-2.258270025	0	0	-4.310646534	19.63201523	160.9458923	1.0
70	-2.258270025	0	0	-4.310646534	19.63201523	160.9458923	1.0
71	-2.258270025	0	0	-4.310646534	19.63201523	160.9458923	1.0
72	-2.258270025	0	0	-4.310646534	19.63201523	160.9458923	1.0
[LeftUpLeg]
65	0.9119900465	0	0	-25.52482224	-10.18279457	94.41748047	1.0
66	0.9119900465	0	0	-25.10525513	-8.906431198	93.7729187	1.0
67	0.9119900465	0	0	-25.48205948	-6.280394554	92.96697998	1.0
68	0.9119900465	0	0	-21.20957565	-3.924051285	92.16627502	1.0
69	0.9119900465	0	0	-16.97027588	-7.809664726	94.50777435	1.0
70	0.9119900465	0	0	-12.89539051	-6.54720974	93.29064178	1.0
71	0.9119900465	0	0	-6.867126465	-3.481972456	92.8160553	1.0
72	0.9119900465	0	0	-1.776395321	0.3773204088	93.84791565	1.0
[LeftLeg]
65	0	-4.371409893	0	23.95065308	-3.464883566	82.7736969	1.0
66	0	-4.371409893	0	31.03510284	-3.207692146	80.69908142	1.0
67	0	-4.371409893	0	40.31968689	-4.594889164	75.2300415	1.0
68	0	-4.371409893	0	42.14696884	-3.084330797	73.22615051	1.0
69	0	-4.371409893	0	42.55643845	-1.997093916	63.71112061	1.0
70	0	-4.371409893	0	45.66195297	-0.8479902148	65.7900238	1.0
71	0	-4.371409893	0	41.80872345	-10.21325111	66.56653595	1.0
72	0	-4.371409893	0	39.07696152	-22.99306488	63.56491089	1.0
[LeftFoot]
65	0	-3.918009996	0	-81.32601166	110.1070251	-33.99180603	1.0
66	0	-3.918009996	0	-74.21681976	106.3573151	-25.9456768	1.0
67	0	-3.918009996	0	-56.00495148	106.2661285	-5.886641979	1.0
68	0	-3.918009996	0	-57.2515831	111.4430008	-3.754752636	1.0
69	0	-3.918009996	0	-52.41189575	123.6921692	3.54888916	1.0
70	0	-3.918009996	0	-52.27345657	120.161972	2.898643017	1.0
71	0	-3.918009996	0	-11.50929642	84.14613342	38.76274872	1.0
72	0	-3.918009996	0	37.63957596	43.65654373	83.080513	1.0
[LeftToeBase]
65	0	-0.5927900076	1.367989898	0	0	0	1.0
66	0	-0.5927900076	1.367989898	0	0	0	1.0
67	0	-0.5927900076	1.367989898	0	0	0	1.0
68	0	-0.5927900076	1.367989898	0	0	0	1.0
69	0	-0.5927900076	1.367989898	0	0	0	1.0
70	0	-0.5927900076	1.367989898	0	0	0	1.0
71	0	-0.5927900076	1.367989898	0	0	0	1.0
72	0	-0.5927900076	1.367989898	0	0	0	1.0
[RightUpLeg]
65	-0.9119900465	0	0	5.138273239	-6.000526905	91.83502197	1.0
66	-0.9119900465	0	0	6.137693405	-6.068273067	91.40024567	1.0
67	-0.9119900465	0	0	4.452894211	-7.046486855	91.32414246	1.0
68	-0.9119900465	0	0	7.319988251	-7.255216122	90.01077271	1.0
69	-0.9119900465	0	0	7.919239998	-6.327256203	88.43467712	1.0
70	-0.9119900465	0	0	7.14895153	-5.709312916	89.36549377	1.0
71	-0.9119900465	0	0	5.555121422	-5.403697014	92.60601807	1.0
72	-0.9119900465	0	0	3.64610219	-4.600599289	92.98246765	1.0
[RightLeg]
65	0	-4.371409893	0	12.04798889	3.491454601	87.78582001	1.0
66	0	-4.371409893	0	7.941197395	4.315593719	89.1743927	1.0
67	0	-4.371409893	0	7.483938217	6.449734688	88.3409729	1.0
68	0	-4.371409893	0	-0.682352066	18.14744568	86.47427368	1.0
69	0	-4.371409893	0	-13.51907063	45.34251022	76.230896	1.0
70	0	-4.371409893	0	-10.87369347	40.01102448	79.26599121	1.0
71	0	-4.371409893	0	2.740887642	-1.998089552	94.51589966	1.0
72	0	-4.371409893	0	4.985524654	1.113988161	93.47400665	1.0
[RightFoot]
65	0	-3.918009996	0	23.23366928	61.33169556	71.56951904	1.0
66	0	-3.918009996	0	28.54672241	62.13194275	72.93206787	1.0
67	0	-3.918009996	0	28.60905266	64.24240112	72.93413544	1.0
68	0	-3.918009996	0	36.0519104	64.10525513	75.26712799	1.0
69	0	-3.918009996	0	44.659729	60.45892715	78.12214661	1.0
70	0	-3.918009996	0	36.9164772	59.27674484	71.74937439	1.0
71	0	-3.918009996	0	20.9497776	67.83381653	60.13154602	1.0
72	0	-3.918009996	0	23.53145027	65.89156342	63.21794128	1.0
[RightToeBase]
65	0	-0.5927900076	1.367989898	0	0	0	1.0
66	0	-0.5927900076	1.367989898	0	0	0	1.0
67	0	-0.5927900076	1.367989898	0	0	0	1.0
68	0	-0.5927900076	1.367989898	0	0	0	1.0
69	0	-0.5927900076	1.367989898	0	0	0	1.0
70	0	-0.5927900076	1.367989898	0	0	0	1.0
71	0	-0.5927900076	1.367989898	0	0	0	1.0
72	0	-0.5927900076	1.367989898	0	0	0	1.0
[EndOfFile]
